<svg xmlns="http://www.w3.org/2000/svg" viewBox="0 0 603.84 394.3"><defs><style>.cls-1{fill:#fff;}</style></defs><title>camera</title><g id="Layer_3" data-name="Layer 3"><path class="cls-1" d="M253.45,631.54a8.35,8.35,0,1,0,8.34,8.35A8.35,8.35,0,0,0,253.45,631.54Z" transform="translate(-98.08 -298.85)"/><path class="cls-1" d="M404.63,420.69A118.59,118.59,0,1,0,523.22,539.28,118.59,118.59,0,0,0,404.63,420.69Zm1.57,209.44a90.32,90.32,0,1,1,90.33-90.33A90.33,90.33,0,0,1,406.2,630.13Z" transform="translate(-98.08 -298.85)"/><path class="cls-1" d="M675.63,354.44V343.8h25.76V299.3H618.64v44.5h23.42v10.6l-41.24,0V299l-255.08-.12v30H322v-7.3H334.7v-22h-41v22h11.6v7.3H276.88v20.41H226V339.4h22.67V300.22H175.8V339.4h20.62v9.85H148.26V339.4h22.68V300.22H98.08V339.4H118.7v9.85H98.08V642.48c0,28,22.34,50.67,49.9,50.67H652c27.56,0,49.9-22.68,49.9-50.67v-288ZM124.68,387.28a12.68,12.68,0,1,1,12.67-12.68A12.67,12.67,0,0,1,124.68,387.28Zm39.88.46a12.68,12.68,0,1,1,12.68-12.67A12.68,12.68,0,0,1,164.56,387.74Zm38.88.54a12.68,12.68,0,1,1,12.68-12.67A12.68,12.68,0,0,1,203.44,388.28Zm439.89-19.71a12.68,12.68,0,1,1-12.67,12.68A12.68,12.68,0,0,1,643.33,368.57ZM373.72,318.79h82.55v36.64H373.72Zm30.91,370.12a149.38,149.38,0,0,1-118.91-58.83L249.9,657.52l-14.66-19.14,37.37-28.64a149.65,149.65,0,1,1,132,79.17ZM571.29,355.43H488.74V318.79h82.55ZM679.5,631.84H597V595.2H679.5Zm2.33-238.38a12.68,12.68,0,1,1,12.67-12.67A12.68,12.68,0,0,1,681.83,393.46Z" transform="translate(-98.08 -298.85)"/></g></svg>